<?xml version="1.0" encoding="UTF-8" standalone="no"?>
<!DOCTYPE svg PUBLIC "-//W3C//DTD SVG 1.1//EN"
 "http://www.w3.org/Graphics/SVG/1.1/DTD/svg11.dtd">
<!-- Generated by graphviz version 2.40.1 (20161225.0304)
 -->
<!-- Title: G Pages: 1 -->
<svg width="605pt" height="326pt"
 viewBox="0.00 0.00 605.14 326.00" xmlns="http://www.w3.org/2000/svg" xmlns:xlink="http://www.w3.org/1999/xlink">
<g id="graph0" class="graph" transform="scale(1 1) rotate(0) translate(4 322)">
<title>G</title>
<polygon fill="#ffffff" stroke="transparent" points="-4,4 -4,-322 601.142,-322 601.142,4 -4,4"/>
<!-- A0 -->
<g id="node1" class="node">
<title>A0</title>
<path fill="none" stroke="#000000" d="M46.0195,-133C46.0195,-133 11.9935,-133 11.9935,-133 5.9935,-133 -.0065,-127 -.0065,-121 -.0065,-121 -.0065,-109 -.0065,-109 -.0065,-103 5.9935,-97 11.9935,-97 11.9935,-97 46.0195,-97 46.0195,-97 52.0195,-97 58.0195,-103 58.0195,-109 58.0195,-109 58.0195,-121 58.0195,-121 58.0195,-127 52.0195,-133 46.0195,-133"/>
<text text-anchor="middle" x="29.0065" y="-112" font-family="Helvetica,sans-Serif" font-size="10.00" fill="#000000">{Inicio}</text>
</g>
<!-- A0&#45;&gt;A0 -->
<g id="edge2" class="edge">
<title>A0&#45;&gt;A0</title>
<path fill="none" stroke="#000000" d="M14.8957,-133.1527C12.7248,-142.5391 17.4284,-151 29.0065,-151 36.0619,-151 40.5646,-147.8581 42.5145,-143.2796"/>
<polygon fill="#000000" stroke="#000000" points="43.1173,-133.1527 47.015,-143.4025 42.8202,-138.1439 42.523,-143.135 42.523,-143.135 42.523,-143.135 42.8202,-138.1439 38.0309,-142.8676 43.1173,-133.1527 43.1173,-133.1527"/>
<text text-anchor="middle" x="29.0065" y="-154" font-family="Helvetica,sans-Serif" font-size="10.00" fill="#000000">[reinicia]</text>
</g>
<!-- A1 -->
<g id="node2" class="node">
<title>A1</title>
<path fill="none" stroke="#000000" d="M252.4403,-168C252.4403,-168 170.9077,-168 170.9077,-168 164.9077,-168 158.9077,-162 158.9077,-156 158.9077,-156 158.9077,-144 158.9077,-144 158.9077,-138 164.9077,-132 170.9077,-132 170.9077,-132 252.4403,-132 252.4403,-132 258.4403,-132 264.4403,-138 264.4403,-144 264.4403,-144 264.4403,-156 264.4403,-156 264.4403,-162 258.4403,-168 252.4403,-168"/>
<text text-anchor="middle" x="211.674" y="-147" font-family="Helvetica,sans-Serif" font-size="10.00" fill="#000000">{AguardaJogada}</text>
</g>
<!-- A0&#45;&gt;A1 -->
<g id="edge1" class="edge">
<title>A0&#45;&gt;A1</title>
<path fill="none" stroke="#000000" d="M58.2215,-123.6103C64.0845,-125.1881 70.2228,-126.7338 76.013,-128 99.6677,-133.1728 125.8867,-137.7017 148.9197,-141.2842"/>
<polygon fill="#000000" stroke="#000000" points="158.9172,-142.8115 148.3523,-145.7497 153.9745,-142.0564 149.0319,-141.3013 149.0319,-141.3013 149.0319,-141.3013 153.9745,-142.0564 149.7115,-136.8529 158.9172,-142.8115 158.9172,-142.8115"/>
<text text-anchor="middle" x="108.527" y="-142" font-family="Helvetica,sans-Serif" font-size="10.00" fill="#000000">[comeca]</text>
</g>
<!-- A0&#45;&gt;A1 -->
<g id="edge3" class="edge">
<title>A0&#45;&gt;A1</title>
<path fill="none" stroke="#000000" d="M58.4811,-110.3968C81.3457,-107.797 113.6504,-106.2603 141.041,-113 152.8933,-115.9164 164.9602,-121.213 175.6878,-126.9043"/>
<polygon fill="#000000" stroke="#000000" points="184.7313,-131.9574 173.8066,-131.0079 180.3664,-129.5185 176.0016,-127.0796 176.0016,-127.0796 176.0016,-127.0796 180.3664,-129.5185 178.1966,-123.1512 184.7313,-131.9574 184.7313,-131.9574"/>
<text text-anchor="middle" x="108.527" y="-116" font-family="Helvetica,sans-Serif" font-size="10.00" fill="#000000">[continuaJogo]</text>
</g>
<!-- A1&#45;&gt;A1 -->
<g id="edge4" class="edge">
<title>A1&#45;&gt;A1</title>
<path fill="none" stroke="#000000" d="M207.9835,-168.1527C207.4157,-177.5391 208.6459,-186 211.674,-186 213.5193,-186 214.6969,-182.8581 215.2069,-178.2796"/>
<polygon fill="#000000" stroke="#000000" points="215.3645,-168.1527 219.7082,-178.2216 215.2866,-173.1521 215.2087,-178.1515 215.2087,-178.1515 215.2087,-178.1515 215.2866,-173.1521 210.7093,-178.0814 215.3645,-168.1527 215.3645,-168.1527"/>
<text text-anchor="middle" x="211.674" y="-189" font-family="Helvetica,sans-Serif" font-size="10.00" fill="#000000">[joga]</text>
</g>
<!-- A1&#45;&gt;A1 -->
<g id="edge7" class="edge">
<title>A1&#45;&gt;A1</title>
<path fill="none" stroke="#000000" d="M205.4883,-168.2576C202.2808,-185.4023 204.3427,-204 211.674,-204 217.5734,-204 220.0607,-191.9576 219.1361,-178.3202"/>
<polygon fill="#000000" stroke="#000000" points="217.8597,-168.2576 223.5824,-177.6119 218.4889,-173.2179 219.1181,-178.1781 219.1181,-178.1781 219.1181,-178.1781 218.4889,-173.2179 214.6539,-178.7444 217.8597,-168.2576 217.8597,-168.2576"/>
<text text-anchor="middle" x="211.674" y="-207" font-family="Helvetica,sans-Serif" font-size="10.00" fill="#000000">[mudaTurno]</text>
</g>
<!-- A1&#45;&gt;A1 -->
<g id="edge8" class="edge">
<title>A1&#45;&gt;A1</title>
<path fill="none" stroke="#000000" d="M203.9313,-168.0781C197.0802,-192.4094 199.6611,-222 211.674,-222 222.0914,-222 225.4159,-199.7475 221.6473,-177.9693"/>
<polygon fill="#000000" stroke="#000000" points="219.4167,-168.0781 226.0064,-176.8431 220.5167,-172.9556 221.6167,-177.8331 221.6167,-177.8331 221.6167,-177.8331 220.5167,-172.9556 217.2269,-178.8231 219.4167,-168.0781 219.4167,-168.0781"/>
<text text-anchor="middle" x="211.674" y="-225" font-family="Helvetica,sans-Serif" font-size="10.00" fill="#000000">[continuarJogo]</text>
</g>
<!-- A1&#45;&gt;A1 -->
<g id="edge9" class="edge">
<title>A1&#45;&gt;A1</title>
<path fill="none" stroke="#000000" d="M202.8072,-168.1124C191.9043,-199.2398 194.8599,-240 211.674,-240 226.7804,-240 230.7004,-207.0988 223.4339,-177.8418"/>
<polygon fill="#000000" stroke="#000000" points="220.5408,-168.1124 227.7044,-176.415 221.9659,-172.905 223.3911,-177.6976 223.3911,-177.6976 223.3911,-177.6976 221.9659,-172.905 219.0778,-178.9802 220.5408,-168.1124 220.5408,-168.1124"/>
<text text-anchor="middle" x="211.674" y="-243" font-family="Helvetica,sans-Serif" font-size="10.00" fill="#000000">[usaPeca]</text>
</g>
<!-- A1&#45;&gt;A1 -->
<g id="edge10" class="edge">
<title>A1&#45;&gt;A1</title>
<path fill="none" stroke="#000000" d="M202.0041,-168.0577C186.7359,-205.7886 189.9592,-258 211.674,-258 231.6075,-258 235.9589,-214.0032 224.728,-177.5985"/>
<polygon fill="#000000" stroke="#000000" points="221.3439,-168.0577 228.928,-175.978 223.0154,-172.77 224.6869,-177.4824 224.6869,-177.4824 224.6869,-177.4824 223.0154,-172.77 220.4458,-178.9867 221.3439,-168.0577 221.3439,-168.0577"/>
<text text-anchor="middle" x="211.674" y="-261" font-family="Helvetica,sans-Serif" font-size="10.00" fill="#000000">[reinicia]</text>
</g>
<!-- A2 -->
<g id="node3" class="node">
<title>A2</title>
<path fill="none" stroke="#000000" d="M497.664,-228C497.664,-228 389.917,-228 389.917,-228 383.917,-228 377.917,-222 377.917,-216 377.917,-216 377.917,-204 377.917,-204 377.917,-198 383.917,-192 389.917,-192 389.917,-192 497.664,-192 497.664,-192 503.664,-192 509.664,-198 509.664,-204 509.664,-204 509.664,-216 509.664,-216 509.664,-222 503.664,-228 497.664,-228"/>
<text text-anchor="middle" x="443.7905" y="-207" font-family="Helvetica,sans-Serif" font-size="10.00" fill="#000000">{AguardaDecisaoPeca}</text>
</g>
<!-- A1&#45;&gt;A2 -->
<g id="edge5" class="edge">
<title>A1&#45;&gt;A2</title>
<path fill="none" stroke="#000000" d="M264.3448,-163.6149C295.0235,-171.5451 334.2263,-181.6787 368.1597,-190.4501"/>
<polygon fill="#000000" stroke="#000000" points="378.0414,-193.0045 367.2334,-194.8585 373.2005,-191.7531 368.3596,-190.5017 368.3596,-190.5017 368.3596,-190.5017 373.2005,-191.7531 369.4858,-186.1449 378.0414,-193.0045 378.0414,-193.0045"/>
<text text-anchor="middle" x="321.2055" y="-190" font-family="Helvetica,sans-Serif" font-size="10.00" fill="#000000">[decidirPeca]</text>
</g>
<!-- A3 -->
<g id="node4" class="node">
<title>A3</title>
<path fill="none" stroke="#000000" d="M488.2655,-144C488.2655,-144 399.3155,-144 399.3155,-144 393.3155,-144 387.3155,-138 387.3155,-132 387.3155,-132 387.3155,-120 387.3155,-120 387.3155,-114 393.3155,-108 399.3155,-108 399.3155,-108 488.2655,-108 488.2655,-108 494.2655,-108 500.2655,-114 500.2655,-120 500.2655,-120 500.2655,-132 500.2655,-132 500.2655,-138 494.2655,-144 488.2655,-144"/>
<text text-anchor="middle" x="443.7905" y="-123" font-family="Helvetica,sans-Serif" font-size="10.00" fill="#000000">{AguardaMiniJogo}</text>
</g>
<!-- A1&#45;&gt;A3 -->
<g id="edge6" class="edge">
<title>A1&#45;&gt;A3</title>
<path fill="none" stroke="#000000" d="M264.4338,-151.2307C292.8855,-151.2281 328.5394,-150.1512 360.104,-146 365.7968,-145.2513 371.6667,-144.2766 377.5322,-143.1605"/>
<polygon fill="#000000" stroke="#000000" points="387.3672,-141.1639 378.4625,-147.5636 382.4672,-142.1587 377.5671,-143.1535 377.5671,-143.1535 377.5671,-143.1535 382.4672,-142.1587 376.6718,-138.7435 387.3672,-141.1639 387.3672,-141.1639"/>
<text text-anchor="middle" x="321.2055" y="-154" font-family="Helvetica,sans-Serif" font-size="10.00" fill="#000000">[avancaMiniJogo]</text>
</g>
<!-- A4 -->
<g id="node5" class="node">
<title>A4</title>
<path fill="none" stroke="#000000" d="M497.0417,-90C497.0417,-90 390.5393,-90 390.5393,-90 384.5393,-90 378.5393,-84 378.5393,-78 378.5393,-78 378.5393,-66 378.5393,-66 378.5393,-60 384.5393,-54 390.5393,-54 390.5393,-54 497.0417,-54 497.0417,-54 503.0417,-54 509.0417,-60 509.0417,-66 509.0417,-66 509.0417,-78 509.0417,-78 509.0417,-84 503.0417,-90 497.0417,-90"/>
<text text-anchor="middle" x="443.7905" y="-69" font-family="Helvetica,sans-Serif" font-size="10.00" fill="#000000">{AguardaDecisaoFinal}</text>
</g>
<!-- A1&#45;&gt;A4 -->
<g id="edge13" class="edge">
<title>A1&#45;&gt;A4</title>
<path fill="none" stroke="#000000" d="M237.4802,-131.9591C250.4307,-123.6203 266.66,-114.2116 282.307,-108 309.5315,-97.1924 340.6906,-89.2826 368.3297,-83.677"/>
<polygon fill="#000000" stroke="#000000" points="378.3394,-81.7149 369.3918,-88.0545 373.4328,-82.6767 368.5261,-83.6386 368.5261,-83.6386 368.5261,-83.6386 373.4328,-82.6767 367.6605,-79.2226 378.3394,-81.7149 378.3394,-81.7149"/>
<text text-anchor="middle" x="321.2055" y="-111" font-family="Helvetica,sans-Serif" font-size="10.00" fill="#000000">[joga]</text>
</g>
<!-- A5 -->
<g id="node6" class="node">
<title>A5</title>
<ellipse fill="none" stroke="#000000" cx="582.142" cy="-108" rx="11" ry="11"/>
<ellipse fill="none" stroke="#000000" cx="582.142" cy="-108" rx="15" ry="15"/>
</g>
<!-- A1&#45;&gt;A5 -->
<g id="edge15" class="edge">
<title>A1&#45;&gt;A5</title>
<path fill="none" stroke="#000000" d="M232.1749,-168.0212C245.7,-179.2223 264.2039,-193.2884 282.307,-203 372.2684,-251.2608 421.3373,-288.5126 509.477,-237 547.7908,-214.6078 567.476,-163.7479 576.2332,-133.0013"/>
<polygon fill="#000000" stroke="#000000" points="578.8876,-123.0443 580.6598,-133.866 577.5996,-127.8756 576.3116,-132.7068 576.3116,-132.7068 576.3116,-132.7068 577.5996,-127.8756 571.9635,-131.5476 578.8876,-123.0443 578.8876,-123.0443"/>
<text text-anchor="middle" x="443.7905" y="-264" font-family="Helvetica,sans-Serif" font-size="10.00" fill="#000000">[sair]</text>
</g>
<!-- A3&#45;&gt;A1 -->
<g id="edge12" class="edge">
<title>A3&#45;&gt;A1</title>
<path fill="none" stroke="#000000" d="M387.457,-124.5573C356.3041,-124.5569 316.9905,-125.8693 282.307,-131 279.7789,-131.374 277.2118,-131.8066 274.6274,-132.2863"/>
<polygon fill="#000000" stroke="#000000" points="264.6197,-134.3456 273.5075,-127.9224 269.5171,-133.3378 274.4145,-132.33 274.4145,-132.33 274.4145,-132.33 269.5171,-133.3378 275.3215,-136.7377 264.6197,-134.3456 264.6197,-134.3456"/>
<text text-anchor="middle" x="321.2055" y="-134" font-family="Helvetica,sans-Serif" font-size="10.00" fill="#000000">[jogaMJ]</text>
</g>
<!-- A3&#45;&gt;A3 -->
<g id="edge11" class="edge">
<title>A3&#45;&gt;A3</title>
<path fill="none" stroke="#000000" d="M426.7851,-144.1527C424.1689,-153.5391 429.8374,-162 443.7905,-162 452.2932,-162 457.7195,-158.8581 460.0693,-154.2796"/>
<polygon fill="#000000" stroke="#000000" points="460.7959,-144.1527 464.5686,-154.4491 460.438,-149.1399 460.0802,-154.1271 460.0802,-154.1271 460.0802,-154.1271 460.438,-149.1399 455.5917,-153.805 460.7959,-144.1527 460.7959,-144.1527"/>
<text text-anchor="middle" x="443.7905" y="-165" font-family="Helvetica,sans-Serif" font-size="10.00" fill="#000000">[iniciaMiniJogo]</text>
</g>
<!-- A3&#45;&gt;A5 -->
<g id="edge16" class="edge">
<title>A3&#45;&gt;A5</title>
<path fill="none" stroke="#000000" d="M500.0634,-118.6787C519.879,-116.1006 541.1591,-113.332 557.0851,-111.26"/>
<polygon fill="#000000" stroke="#000000" points="567.1716,-109.9477 557.8358,-115.7003 562.2134,-110.5928 557.2552,-111.2379 557.2552,-111.2379 557.2552,-111.2379 562.2134,-110.5928 556.6745,-106.7756 567.1716,-109.9477 567.1716,-109.9477"/>
<text text-anchor="middle" x="538.3095" y="-117" font-family="Helvetica,sans-Serif" font-size="10.00" fill="#000000">[sair]</text>
</g>
<!-- A4&#45;&gt;A0 -->
<g id="edge14" class="edge">
<title>A4&#45;&gt;A0</title>
<path fill="none" stroke="#000000" d="M378.6105,-74.4698C304.7777,-78.0075 181.0639,-86.1772 76.013,-104 73.4824,-104.4293 70.8845,-104.9134 68.2717,-105.4329"/>
<polygon fill="#000000" stroke="#000000" points="58.2309,-107.5717 67.0739,-101.087 63.1211,-106.53 68.0114,-105.4883 68.0114,-105.4883 68.0114,-105.4883 63.1211,-106.53 68.949,-109.8895 58.2309,-107.5717 58.2309,-107.5717"/>
<text text-anchor="middle" x="211.674" y="-95" font-family="Helvetica,sans-Serif" font-size="10.00" fill="#000000">[reinicia]</text>
</g>
<!-- A4&#45;&gt;A5 -->
<g id="edge18" class="edge">
<title>A4&#45;&gt;A5</title>
<path fill="none" stroke="#000000" d="M509.0295,-85.5255C522.3783,-88.6667 536.2757,-92.2112 549.142,-96 552.2012,-96.9009 555.3881,-97.9346 558.5228,-99.0094"/>
<polygon fill="#000000" stroke="#000000" points="568.139,-102.47 557.2059,-103.3179 563.4344,-100.7769 558.7297,-99.0838 558.7297,-99.0838 558.7297,-99.0838 563.4344,-100.7769 560.2536,-94.8496 568.139,-102.47 568.139,-102.47"/>
<text text-anchor="middle" x="538.3095" y="-99" font-family="Helvetica,sans-Serif" font-size="10.00" fill="#000000">[sair]</text>
</g>
<!-- A6 -->
<g id="node7" class="node">
<title>A6</title>
<path fill="none" stroke="#000000" d="M492.7055,-36C492.7055,-36 394.8755,-36 394.8755,-36 388.8755,-36 382.8755,-30 382.8755,-24 382.8755,-24 382.8755,-12 382.8755,-12 382.8755,-6 388.8755,0 394.8755,0 394.8755,0 492.7055,0 492.7055,0 498.7055,0 504.7055,-6 504.7055,-12 504.7055,-12 504.7055,-24 504.7055,-24 504.7055,-30 498.7055,-36 492.7055,-36"/>
<text text-anchor="middle" x="443.7905" y="-15" font-family="Helvetica,sans-Serif" font-size="10.00" fill="#000000">{AguardaDecisaoMJ}</text>
</g>
<!-- A6&#45;&gt;A5 -->
<g id="edge17" class="edge">
<title>A6&#45;&gt;A5</title>
<path fill="none" stroke="#000000" d="M491.7916,-36.141C497.8521,-38.8919 503.8835,-41.8664 509.477,-45 528.5291,-55.6732 532.6639,-59.6691 549.142,-74 554.4373,-78.6053 559.8681,-83.9171 564.7561,-88.953"/>
<polygon fill="#000000" stroke="#000000" points="571.8928,-96.4984 561.7519,-92.3255 568.457,-92.8659 565.0212,-89.2333 565.0212,-89.2333 565.0212,-89.2333 568.457,-92.8659 568.2905,-86.1411 571.8928,-96.4984 571.8928,-96.4984"/>
<text text-anchor="middle" x="538.3095" y="-77" font-family="Helvetica,sans-Serif" font-size="10.00" fill="#000000">[sair]</text>
</g>
</g>
</svg>
